<svg width="520" height="520" viewBox="0 0 520 520" fill="none" xmlns="http://www.w3.org/2000/svg">
<g filter="url(#filter0_d_198_6)">
<g clip-path="url(#clip0_198_6)">
<rect x="4" width="512" height="512" rx="256" fill="url(#paint0_linear_198_6)"/>
<path d="M215.281 77.6875C218.214 92.0613 214.601 106.048 204.241 119.313C192.352 134.539 171.112 148.45 140.634 157.704C114.504 165.636 96.8368 179.606 87.3837 195.906C77.9292 212.207 76.8687 230.679 83.0938 246.531C94.2118 274.839 128.394 293.721 174.054 282.11C183.716 279.07 194.656 274.61 203.281 269.219C205.164 268.043 206.902 266.834 208.485 265.609C206.321 263.584 204.412 261.219 202.86 258.531C202.348 257.645 201.887 256.743 201.477 255.836C191.691 261.871 179.17 268.01 162.828 270.368C126.877 277.09 103.955 261.36 96.1243 241.422C91.4315 229.475 92.0938 215.707 99.4993 202.938C106.905 190.17 121.251 178.233 144.709 171.11C177.172 161.255 200.994 146.232 215.281 127.938C227.108 112.793 232.081 95.1618 229.46 77.6882L215.281 77.6875ZM228.664 191.29C228.073 191.29 227.473 191.29 226.882 191.313C218.284 191.624 209.61 193.999 201.64 198.603C181.823 210.042 172.311 231.726 175.953 252.79C185.11 249.57 192.526 245.085 199.132 240.672C200.196 232.364 205.08 224.72 213.172 220.047C217.925 217.302 223.136 215.949 228.265 215.922C238.057 215.87 247.516 220.65 252.757 229.727C260.743 243.557 255.807 261.957 241.976 269.945C235.553 273.654 228.39 274.437 221.749 272.828C218.428 275.888 214.649 278.638 210.709 281.1C206.744 283.58 202.52 285.818 198.217 287.828C209.595 295.838 223.695 299.205 237.405 296.922H237.427L291.709 390.976C304.662 413.406 323.607 427.131 343.297 431.826C362.984 436.521 382.852 432.696 398.984 422.804C431.249 403.019 448.754 357.168 424.132 314.522L411.734 293.031L411.616 292.821C396.905 265.797 377.833 247.443 355.108 236.358C364.692 270.795 368.158 305.232 367.179 339.671L388.695 314.171L392.374 311.921L400.25 325.54C416.716 354.059 402.945 380.077 384.406 391.446C357.628 403.848 337.481 400.459 320.938 374.102L267.103 280.82C282.643 264.001 286.378 238.031 274.438 217.351C264.688 200.463 246.96 191.226 228.665 191.289L228.664 191.29Z" fill="white"/>
<g clip-path="url(#clip1_198_6)">
<path d="M215.837 83.7561C215.845 69.0862 209.516 56.1005 196.72 45.1677C182.033 32.6173 158.447 23.22 126.735 20.2287C99.548 17.6647 79.4506 7.49788 66.9376 -6.59076C54.4231 -20.6791 49.7011 -38.5693 52.6407 -55.3442C57.892 -85.2997 87.6232 -110.618 134.681 -108.343C144.756 -107.291 156.366 -105.101 165.892 -101.538C167.971 -100.761 169.916 -99.9226 171.711 -99.0379C169.994 -96.6222 168.595 -93.9243 167.61 -90.9808C167.285 -90.0099 167.013 -89.034 166.792 -88.0637C155.999 -92.0267 142.506 -95.5459 126.022 -94.5986C89.4528 -94.0185 70.1268 -74.0345 66.4282 -52.9356C64.2116 -40.2924 67.6054 -26.933 77.4079 -15.897C87.2104 -4.86105 103.648 3.97545 128.056 6.27908C161.831 9.4643 188.17 19.4358 205.817 34.5143C220.427 46.9977 228.815 63.2834 229.731 80.9285L215.837 83.7561ZM206.302 -30.234C205.723 -30.1162 205.135 -29.9965 204.552 -29.9008C196.064 -28.4916 187.09 -29.0897 178.363 -32.012C156.663 -39.2704 143.018 -58.6227 142.388 -79.9904C152.004 -78.6603 160.164 -75.7437 167.518 -72.7372C170.216 -64.8075 176.526 -58.2906 185.388 -55.3253C190.593 -53.583 195.969 -53.2961 201 -54.2922C210.606 -56.1928 218.922 -62.7633 222.248 -72.7025C227.317 -87.847 218.811 -104.894 203.665 -109.964C196.632 -112.317 189.456 -111.657 183.269 -108.756C179.406 -111.093 175.154 -113.034 170.802 -114.662C166.422 -116.301 161.837 -117.652 157.22 -118.764C166.772 -128.881 179.918 -134.992 193.808 -135.488L193.83 -135.492L228.271 -238.48C236.491 -263.043 252.32 -280.269 270.678 -288.795C289.034 -297.321 309.265 -297.534 327.046 -291.056C362.608 -278.101 388.903 -236.66 373.277 -189.962L365.413 -166.43L365.34 -166.201C356.311 -136.787 341.281 -114.999 321.223 -99.6064C323.748 -135.263 320.279 -169.699 312.454 -203.251L338.622 -182.553L342.676 -181.082L347.678 -195.998C358.127 -227.227 339.446 -249.977 319.013 -257.421C290.3 -264.236 271.233 -256.898 260.276 -227.772L226.119 -125.63C244.701 -112.247 253.538 -87.5426 245.961 -64.8975C239.773 -46.405 224.243 -33.8191 206.303 -30.2327L206.302 -30.234Z" fill="white"/>
</g>
</g>
</g>
<defs>
<filter id="filter0_d_198_6" x="0" y="0" width="520" height="520" filterUnits="userSpaceOnUse" color-interpolation-filters="sRGB">
<feFlood flood-opacity="0" result="BackgroundImageFix"/>
<feColorMatrix in="SourceAlpha" type="matrix" values="0 0 0 0 0 0 0 0 0 0 0 0 0 0 0 0 0 0 127 0" result="hardAlpha"/>
<feOffset dy="4"/>
<feGaussianBlur stdDeviation="2"/>
<feComposite in2="hardAlpha" operator="out"/>
<feColorMatrix type="matrix" values="0 0 0 0 0 0 0 0 0 0 0 0 0 0 0 0 0 0 0.25 0"/>
<feBlend mode="normal" in2="BackgroundImageFix" result="effect1_dropShadow_198_6"/>
<feBlend mode="normal" in="SourceGraphic" in2="effect1_dropShadow_198_6" result="shape"/>
</filter>
<linearGradient id="paint0_linear_198_6" x1="4" y1="0" x2="516" y2="520.5" gradientUnits="userSpaceOnUse">
<stop stop-color="#4F39F6"/>
<stop offset="1" stop-color="#EC003F"/>
</linearGradient>
<clipPath id="clip0_198_6">
<rect x="4" width="512" height="512" rx="256" fill="white"/>
</clipPath>
<clipPath id="clip1_198_6">
<rect width="384" height="384" fill="white" transform="matrix(0.979925 -0.199368 -0.199368 -0.979925 74.2409 126.532)"/>
</clipPath>
</defs>
</svg>
