<?xml version="1.0" standalone="no"?>
<!DOCTYPE svg PUBLIC "-//W3C//DTD SVG 20010904//EN"
 "http://www.w3.org/TR/2001/REC-SVG-20010904/DTD/svg10.dtd">
<svg version="1.0" xmlns="http://www.w3.org/2000/svg"
 width="520.000000pt" height="520.000000pt" viewBox="0 0 520.000000 520.000000"
 preserveAspectRatio="xMidYMid meet">

<g transform="translate(0.000000,520.000000) scale(0.100000,-0.100000)"
fill="#000000" stroke="none">
<path d="M2385 5190 c-208 -22 -389 -58 -570 -116 l-85 -27 101 -49 c245 -117
395 -282 449 -494 22 -85 26 -209 10 -293 -36 -190 -177 -377 -388 -515 -125
-82 -233 -133 -419 -196 -205 -70 -291 -117 -389 -215 -58 -57 -90 -99 -112
-145 -127 -264 10 -546 306 -634 176 -52 453 -11 651 95 40 22 74 38 75 37 1
-2 16 -22 34 -45 17 -23 32 -46 32 -51 0 -4 -33 -27 -72 -49 -268 -152 -551
-190 -797 -107 -265 89 -434 326 -418 584 10 156 69 288 183 405 111 114 227
180 453 257 257 87 420 179 548 307 152 153 204 305 172 501 -35 218 -243 405
-549 493 l-85 25 -96 -49 c-223 -114 -461 -292 -645 -480 -134 -138 -213 -236
-316 -394 -364 -552 -496 -1237 -367 -1895 79 -397 262 -789 516 -1105 102
-127 320 -339 445 -433 477 -358 1043 -539 1628 -519 381 13 720 97 1050 261
738 366 1251 1053 1391 1861 91 527 17 1055 -216 1540 -330 690 -962 1203
-1702 1381 -240 58 -599 86 -818 64z m16 -1914 c183 -39 336 -180 391 -361 49
-159 12 -365 -86 -483 -15 -16 -26 -35 -26 -42 0 -6 125 -228 278 -492 310
-537 342 -582 460 -640 188 -93 459 -8 579 180 52 81 73 152 73 248 0 104 -23
180 -93 301 -44 76 -56 90 -70 82 -9 -5 -65 -67 -124 -136 l-108 -127 -6 199
c-9 281 -41 529 -98 753 -11 41 -15 72 -9 72 16 0 126 -68 187 -114 82 -64
192 -178 254 -265 68 -94 227 -367 280 -480 43 -93 77 -234 77 -326 0 -443
-371 -809 -795 -782 -49 3 -117 13 -150 22 -151 40 -305 145 -409 276 -35 45
-180 284 -346 572 l-285 495 -55 -5 c-70 -6 -185 18 -267 56 -65 31 -77 45
-44 56 11 3 62 34 114 69 93 62 96 63 175 68 67 4 88 9 123 32 59 40 88 73
116 134 21 46 24 64 21 130 -6 127 -64 210 -174 252 -67 25 -150 23 -218 -5
-54 -23 -130 -97 -150 -147 -36 -88 -39 -91 -145 -146 -119 -61 -121 -61 -121
33 0 142 56 274 159 375 134 131 311 184 492 146z"/>
</g>
</svg>
